<?xml version="1.0" encoding="utf-8"?>
<!-- Generator: Adobe Illustrator 16.0.4, SVG Export Plug-In . SVG Version: 6.00 Build 0)  -->
<!DOCTYPE svg PUBLIC "-//W3C//DTD SVG 1.1//EN" "http://www.w3.org/Graphics/SVG/1.1/DTD/svg11.dtd">
<svg version="1.1" id="Layer_1" xmlns="http://www.w3.org/2000/svg" xmlns:xlink="http://www.w3.org/1999/xlink" x="0px" y="0px"
	 width="32px" height="32px" viewBox="0 0 32 32" enable-background="new 0 0 32 32" xml:space="preserve">
<path fill-rule="evenodd" clip-rule="evenodd" fill="#181616" d="M16,1.447c-8.24,0-14.921,6.681-14.921,14.922
	c0,6.592,4.275,12.185,10.205,14.159c0.747,0.136,1.019-0.325,1.019-0.72c0-0.355-0.011-1.294-0.019-2.54
	c-4.151,0.903-5.027-2-5.027-2c-0.679-1.723-1.658-2.182-1.658-2.182c-1.354-0.925,0.104-0.907,0.104-0.907
	c1.497,0.106,2.285,1.539,2.285,1.539c1.332,2.278,3.493,1.62,4.343,1.239c0.135-0.964,0.521-1.623,0.948-1.994
	c-3.314-0.378-6.797-1.657-6.797-7.376c0-1.628,0.581-2.961,1.536-4.003C7.863,11.207,7.351,9.69,8.162,7.636
	c0,0,1.253-0.402,4.104,1.529c1.189-0.331,2.465-0.497,3.735-0.502c1.268,0.005,2.543,0.171,3.737,0.502
	c2.848-1.931,4.1-1.529,4.1-1.529c0.812,2.054,0.299,3.571,0.148,3.949c0.955,1.042,1.533,2.375,1.533,4.003
	c0,5.733-3.49,6.995-6.814,7.363c0.537,0.461,1.014,1.372,1.014,2.764c0,1.995-0.018,3.604-0.018,4.094
	c0,0.399,0.268,0.862,1.025,0.717c5.924-1.977,10.195-7.565,10.195-14.156C30.922,8.127,24.242,1.447,16,1.447z"/>
</svg>
