<?xml version="1.0" encoding="utf-8"?>
<!-- Generator: Adobe Illustrator 16.0.4, SVG Export Plug-In . SVG Version: 6.00 Build 0)  -->
<!DOCTYPE svg PUBLIC "-//W3C//DTD SVG 1.1//EN" "http://www.w3.org/Graphics/SVG/1.1/DTD/svg11.dtd">
<svg version="1.1" id="Layer_1" xmlns="http://www.w3.org/2000/svg" xmlns:xlink="http://www.w3.org/1999/xlink" x="0px" y="0px"
	 width="32px" height="32px" viewBox="0 0 32 32" enable-background="new 0 0 32 32" xml:space="preserve">
<g>
	<path fill-rule="evenodd" clip-rule="evenodd" fill="#F04236" d="M1.486,5.375C2.045,4.382,2.856,4.487,3.73,4.86
		c2.189,1.251,4.127,2.866,6.185,4.309c1.673,1.172,3.335,2.364,4.963,3.596c0.795,0.603,1.336,0.554,2.112-0.014
		c3.301-2.415,6.581-4.857,9.934-7.198c0.431-0.301,0.848-0.604,1.361-0.746c0.611-0.353,1.209-0.267,1.799,0.059
		c0.716,0.843,0.581,1.846,0.532,2.832c-0.493,1.368-1.959,1.692-2.847,2.64c-0.146,0.137-0.304,0.262-0.473,0.372
		c-0.279,0.172-0.577,0.311-0.856,0.488c-2.944,2.092-5.854,4.232-8.767,6.367c-1.535,1.128-1.786,1.173-3.257,0.089
		c-2.976-2.189-6.034-4.261-8.973-6.497c-0.249-0.264-0.566-0.445-0.829-0.691c-0.085-0.08-0.163-0.167-0.241-0.25
		C4.201,10.048,3.986,9.949,3.77,9.848C2.922,9.231,1.811,8.931,1.364,7.833C1.357,7.687,1.355,7.542,1.357,7.397
		C1.421,6.724,1.215,6.034,1.486,5.375z"/>
	<path fill-rule="evenodd" clip-rule="evenodd" fill="#F3F1F1" d="M28.286,4.807c-3.837,3.085-7.942,5.804-11.888,8.741
		c-0.471,0.349-0.679,0.168-1.115-0.151c-3.699-2.71-7.441-5.36-11.19-8C3.866,5.236,3.784,5.084,3.73,4.86
		c0.512-0.313,1.077-0.315,1.652-0.314c7.13,0.005,14.257,0.003,21.385,0.003C27.289,4.549,27.819,4.493,28.286,4.807z"/>
	<path fill-rule="evenodd" clip-rule="evenodd" fill="#D22D29" d="M27.492,10.286c0.706-1.086,2.006-1.435,2.878-2.314
		c0.056,0.07,0.115,0.141,0.17,0.21c0.244,2.088,0.084,4.183,0.104,6.275c0.038,3.857-0.018,7.717,0.028,11.573
		c0.01,0.09,0.021,0.181,0.031,0.27c-0.198,0.186-0.393,0.369-0.591,0.558c-0.793,0.337-1.593,0.434-2.398,0.034
		c-0.221-0.274-0.297-0.598-0.297-0.935c0.003-5.132-0.125-10.267,0.065-15.398C27.487,10.468,27.491,10.378,27.492,10.286z"/>
	<path fill-rule="evenodd" clip-rule="evenodd" fill="#F04236" d="M1.677,26.876c-0.266-0.118-0.462-0.286-0.441-0.609
		c0.275-1.597,0.098-3.205,0.111-4.808c0.031-3.786,0.007-7.572,0.01-11.359c-0.012-0.188,0.042-0.354,0.158-0.5
		c1.041-0.438,1.915-0.044,2.749,0.551c0.233,0.542,0.207,1.116,0.207,1.686c0.002,4.413,0.007,8.828-0.003,13.243
		c-0.001,0.609,0.083,1.243-0.306,1.791C3.334,27.322,2.505,27.148,1.677,26.876z"/>
	<path fill-rule="evenodd" clip-rule="evenodd" fill="#F3F7F7" d="M4.642,10.294c0.356,0.056,0.587,0.292,0.799,0.556
		c-0.137,4.665-0.043,9.328-0.059,13.993c-0.005,1.718,0.118,1.829,1.899,1.833c5.665,0.012,11.329,0.001,16.994,0.007
		c0.761,0,1.523-0.038,2.282,0.065c0.181,0.035,0.352,0.098,0.513,0.185c0.176,0.104,0.241,0.257,0.198,0.457
		c-8.085,0.012-16.172,0.022-24.259,0.033c-0.332,0-0.672,0.034-0.945-0.22c0.637-0.552,1.52,0.127,2.157-0.427
		c0.287-1.32,0.113-2.658,0.124-3.985c0.028-3.619,0.002-7.239,0.018-10.857C4.366,11.38,4.201,10.781,4.642,10.294z"/>
	<path fill-rule="evenodd" clip-rule="evenodd" fill="#EF3D31" d="M30.37,7.972c-0.014-1.042,0.098-2.097-0.285-3.105
		c0.727,0.248,0.824,0.871,0.824,1.495c0.014,6.478,0.01,12.956,0.003,19.436c-0.003,0.167-0.136,0.334-0.208,0.503l-0.098-0.086
		c-0.208-4.61-0.018-9.222-0.101-13.833c-0.024-1.464,0.184-2.937-0.139-4.392L30.37,7.972z"/>
	<path fill-rule="evenodd" clip-rule="evenodd" fill="#EDC1C0" d="M27.269,27.391c-0.018-0.085-0.035-0.172-0.051-0.259
		c-0.458-0.511-0.393-1.146-0.395-1.759c-0.008-4.358-0.007-8.718-0.001-13.079c0.001-0.613-0.042-1.242,0.399-1.76
		c0.036-0.143,0.073-0.281,0.271-0.249l0.028-0.021c0.281,1.125,0.109,2.271,0.118,3.403c0.025,3.954,0.003,7.904,0.018,11.858
		c0.001,0.462-0.14,0.952,0.137,1.392c0.653,0.248,1.396-0.167,2.021,0.272C28.997,27.652,28.121,27.361,27.269,27.391z"/>
	<path fill-rule="evenodd" clip-rule="evenodd" fill="#F03628" d="M1.498,9.7c-0.002,5.025,0.003,10.052-0.011,15.078
		c-0.001,0.501,0.183,1.053-0.252,1.489c-0.272-2.971-0.083-5.945-0.111-8.919C1.1,14.799,1.165,12.249,1.19,9.7
		C1.293,9.593,1.396,9.587,1.498,9.7z"/>
	<path fill-rule="evenodd" clip-rule="evenodd" fill="#F03323" d="M4.361,27.137c-0.766,0.022-1.53,0.045-2.296,0.067
		c-0.129-0.11-0.259-0.219-0.388-0.328c0.796-0.012,1.593-0.022,2.389-0.033c0.097-0.099,0.207-0.118,0.33-0.048
		C4.46,26.916,4.451,27.031,4.361,27.137z"/>
	<path fill-rule="evenodd" clip-rule="evenodd" fill="#F03628" d="M1.486,5.375c0,0.776,0.001,1.551,0.003,2.327
		C1.383,7.82,1.284,7.821,1.19,7.688C1.194,6.905,0.803,6.071,1.486,5.375z"/>
	<path fill-rule="evenodd" clip-rule="evenodd" fill="#D01B16" d="M29.814,27.19c-0.673-0.031-1.348-0.062-2.021-0.097
		c-0.074-0.056-0.101-0.111-0.073-0.169c0.026-0.054,0.053-0.082,0.078-0.082c0.771,0.004,1.545,0.009,2.315,0.015
		C30.016,26.968,29.915,27.079,29.814,27.19z"/>
	<path fill-rule="evenodd" clip-rule="evenodd" fill="#D01C17" d="M1.19,7.688c0.099,0.005,0.2,0.011,0.299,0.015
		c0.005,0.089,0.01,0.18,0.014,0.269c0.335,0.575,0.479,1.147-0.01,1.716L1.498,9.7c-0.103,0-0.205,0-0.308-0.001
		C1.072,9.029,1.072,8.358,1.19,7.688z"/>
	<path fill-rule="evenodd" clip-rule="evenodd" fill="#F3F1F1" d="M26.937,27.132c-6.858,0-13.719-0.024-20.578,0.024
		c-1.117,0.007-1.475-0.296-1.459-1.442c0.062-4.523,0.019-9.051,0.038-13.574c0.002-0.462-0.283-1.105,0.504-1.289
		c3.098,2.209,6.218,4.388,9.28,6.646c0.983,0.726,1.677,0.688,2.662-0.062c2.947-2.243,5.993-4.359,9.002-6.525
		c0.537,0.042,0.7,0.351,0.695,0.865c-0.054,5.077,0.092,10.152-0.084,15.229C26.997,27.048,26.959,27.09,26.937,27.132z"/>
	<path fill-rule="evenodd" clip-rule="evenodd" fill="#F3F5F5" d="M26.937,27.132c0-4.861,0-9.719,0.002-14.579
		c0.002-0.613,0.112-1.258-0.553-1.643c0.216-0.264,0.495-0.386,0.836-0.375c-0.002,5.533-0.004,11.065-0.004,16.598
		C27.124,27.132,27.03,27.132,26.937,27.132z"/>
	<path fill-rule="evenodd" clip-rule="evenodd" fill="#F03B2D" d="M4.326,26.85c-0.087-0.003-0.174-0.005-0.261-0.007
		c0.002-5.621,0.002-11.241,0.003-16.862C3.97,9.918,3.935,9.856,3.968,9.792c0.033-0.063,0.066-0.096,0.099-0.096
		c0.25,0.012,0.465,0.081,0.554,0.351c-0.283,0.925-0.115,1.874-0.12,2.81c-0.022,4.206-0.003,8.412-0.017,12.618
		C4.484,25.933,4.635,26.423,4.326,26.85z"/>
	<path fill-rule="evenodd" clip-rule="evenodd" fill="#F0847E" d="M4.326,26.85c0.009-5.112,0.012-10.225,0.038-15.335
		c0.003-0.492-0.221-1.049,0.257-1.468c0.01,0.083,0.017,0.165,0.021,0.249c0,5.13,0.007,10.26-0.016,15.392
		c-0.001,0.482,0.257,1.049-0.266,1.45C4.349,27.041,4.338,26.945,4.326,26.85z"/>
	<path fill-rule="evenodd" clip-rule="evenodd" fill="#D32E29" d="M4.067,9.696c0.001,0.095,0.001,0.19,0.001,0.285
		C3.211,9.884,2.351,9.786,1.493,9.688C1.496,9.117,1.5,8.544,1.503,7.972C2.358,8.547,3.212,9.122,4.067,9.696z"/>
	<path fill-rule="evenodd" clip-rule="evenodd" fill="#D12924" d="M30.367,7.989c0.322,0.227,0.288,0.57,0.288,0.899
		c-0.014,5.775-0.031,11.551-0.049,17.326c-0.428-0.438-0.226-0.99-0.229-1.485C30.363,19.148,30.367,13.569,30.367,7.989z"/>
	<path fill-rule="evenodd" clip-rule="evenodd" fill="#D0160F" d="M27.798,26.843c-0.001,0.084-0.003,0.167-0.005,0.251
		c-0.535-0.265-0.27-0.758-0.27-1.132c-0.017-5.232-0.007-10.464-0.003-15.697c0.455,0.425,0.266,0.983,0.266,1.482
		C27.802,16.778,27.797,21.811,27.798,26.843z"/>
</g>
</svg>
