<?xml version="1.0" encoding="utf-8"?>
<!-- Generator: Adobe Illustrator 16.0.4, SVG Export Plug-In . SVG Version: 6.00 Build 0)  -->
<!DOCTYPE svg PUBLIC "-//W3C//DTD SVG 1.1//EN" "http://www.w3.org/Graphics/SVG/1.1/DTD/svg11.dtd">
<svg version="1.1" id="Layer_1" xmlns="http://www.w3.org/2000/svg" xmlns:xlink="http://www.w3.org/1999/xlink" x="0px" y="0px"
	 width="32px" height="32px" viewBox="0 0 32 32" enable-background="new 0 0 32 32" xml:space="preserve">
<path fill="#0274B3" d="M26.48,26.486h-4.378v-6.859c0-1.635-0.033-3.74-2.281-3.74c-2.282,0-2.631,1.779-2.631,3.618v6.981h-4.376
	V12.381h4.204v1.923h0.057c0.587-1.108,2.016-2.279,4.149-2.279c4.438,0,5.256,2.918,5.256,6.719V26.486L26.48,26.486z M7.87,10.452
	c-1.408,0-2.541-1.142-2.541-2.544c0-1.401,1.133-2.541,2.541-2.541c1.404,0,2.542,1.14,2.542,2.541
	C10.411,9.311,9.272,10.452,7.87,10.452z M10.065,26.486h-4.39V12.381h4.39V26.486z M28.669,1.296H3.478
	c-1.206,0-2.182,0.954-2.182,2.129v25.302c0,1.175,0.976,2.129,2.182,2.129h25.189c1.204,0,2.189-0.954,2.189-2.129V3.425
	c0-1.175-0.985-2.129-2.189-2.129H28.669z"/>
</svg>
