<?xml version="1.0" encoding="utf-8"?>
<!-- Generator: Adobe Illustrator 16.0.4, SVG Export Plug-In . SVG Version: 6.00 Build 0)  -->
<!DOCTYPE svg PUBLIC "-//W3C//DTD SVG 1.1//EN" "http://www.w3.org/Graphics/SVG/1.1/DTD/svg11.dtd">
<svg version="1.1" id="Layer_1" xmlns="http://www.w3.org/2000/svg" xmlns:xlink="http://www.w3.org/1999/xlink" x="0px" y="0px"
	 width="32px" height="32px" viewBox="0 0 32 32" enable-background="new 0 0 32 32" xml:space="preserve">
<g>
	<path d="M17.321,31.869c-0.866,0-1.733,0-2.6,0c-0.622-0.091-1.246-0.153-1.863-0.279C3.825,29.74-1.899,20.594,0.795,11.494
		C3.115,3.658,10.837-1.127,18.896,0.421c6.381,1.226,10.497,5.152,12.437,11.35c0.299,0.957,0.426,1.951,0.541,2.945
		c0,0.866,0,1.733,0,2.601c-0.074,0.521-0.117,1.047-0.228,1.558c-1.375,6.374-5.188,10.526-11.412,12.46
		C19.288,31.629,18.305,31.752,17.321,31.869z M25.025,9.989c-6.028,0-11.977,0-17.93,0c0.004,0.117,0.09,0.151,0.149,0.202
		c2.836,2.459,5.676,4.914,8.507,7.38c0.205,0.179,0.324,0.189,0.536,0.004c2.564-2.236,5.139-4.461,7.711-6.69
		C24.324,10.603,24.646,10.32,25.025,9.989z M24.987,22.661c-0.051-0.066-0.07-0.104-0.1-0.128c-2.075-1.78-4.154-3.558-6.227-5.34
		c-0.154-0.134-0.267-0.136-0.424-0.001c-0.636,0.542-1.29,1.064-1.918,1.613c-0.228,0.2-0.382,0.185-0.603-0.005
		c-0.626-0.537-1.274-1.049-1.906-1.581c-0.177-0.148-0.3-0.177-0.497-0.006c-2.018,1.753-4.045,3.494-6.07,5.239
		c-0.059,0.052-0.141,0.09-0.152,0.208C13.041,22.661,18.988,22.661,24.987,22.661z M25.729,16.322c0-1.763,0.001-3.526-0.002-5.29
		c0-0.099,0.049-0.234-0.049-0.288c-0.108-0.06-0.178,0.071-0.25,0.135c-2.015,1.737-4.024,3.479-6.044,5.21
		c-0.224,0.191-0.205,0.286,0.004,0.466c2.02,1.733,4.029,3.475,6.044,5.211c0.072,0.063,0.146,0.194,0.25,0.136
		c0.094-0.054,0.045-0.19,0.045-0.29C25.73,19.85,25.729,18.086,25.729,16.322z M6.313,16.319c0,1.776-0.001,3.551,0.001,5.326
		c0,0.089-0.043,0.21,0.045,0.26c0.097,0.052,0.163-0.063,0.229-0.12c2.024-1.745,4.044-3.495,6.072-5.236
		c0.225-0.193,0.191-0.291-0.015-0.468c-2.013-1.726-4.018-3.463-6.025-5.196c-0.074-0.064-0.144-0.193-0.25-0.144
		s-0.055,0.187-0.055,0.284C6.312,12.79,6.313,14.555,6.313,16.319z"/>
	<path fill-rule="evenodd" clip-rule="evenodd" fill="none" d="M25.025,9.989c-0.38,0.331-0.701,0.614-1.026,0.896
		c-2.572,2.229-5.147,4.454-7.711,6.69c-0.212,0.186-0.331,0.175-0.536-0.004c-2.832-2.466-5.671-4.921-8.507-7.38
		C7.186,10.14,7.1,10.106,7.096,9.989C13.048,9.989,18.997,9.989,25.025,9.989z"/>
	<path fill-rule="evenodd" clip-rule="evenodd" fill="none" d="M24.987,22.661c-5.999,0-11.946,0-17.897,0
		c0.011-0.118,0.093-0.156,0.152-0.208c2.024-1.745,4.052-3.486,6.07-5.239c0.197-0.171,0.32-0.143,0.497,0.006
		c0.632,0.532,1.28,1.044,1.906,1.581c0.221,0.189,0.375,0.205,0.603,0.005c0.628-0.549,1.283-1.071,1.918-1.613
		c0.157-0.135,0.27-0.133,0.424,0.001c2.072,1.782,4.151,3.56,6.227,5.34C24.917,22.558,24.937,22.595,24.987,22.661z"/>
	<path fill-rule="evenodd" clip-rule="evenodd" fill="none" d="M25.729,16.322c0,1.764,0.001,3.527-0.002,5.29
		c0,0.1,0.049,0.236-0.045,0.29c-0.104,0.059-0.178-0.072-0.25-0.136c-2.015-1.736-4.024-3.478-6.044-5.211
		c-0.209-0.18-0.228-0.275-0.004-0.466c2.02-1.73,4.029-3.473,6.044-5.21c0.072-0.063,0.142-0.194,0.25-0.135
		c0.098,0.053,0.049,0.189,0.049,0.288C25.73,12.796,25.729,14.56,25.729,16.322z"/>
	<path fill-rule="evenodd" clip-rule="evenodd" fill="none" d="M6.313,16.319c0-1.765-0.001-3.53,0.002-5.294
		c0-0.097-0.052-0.235,0.055-0.284s0.176,0.08,0.25,0.144c2.008,1.732,4.013,3.47,6.025,5.196c0.207,0.177,0.24,0.274,0.015,0.468
		c-2.028,1.741-4.048,3.491-6.072,5.236c-0.065,0.057-0.131,0.172-0.229,0.12c-0.088-0.05-0.045-0.171-0.045-0.26
		C6.312,19.87,6.313,18.096,6.313,16.319z"/>
</g>
</svg>
